<mxfile host="app.diagrams.net" modified="2020-12-06T14:31:00.709Z" agent="5.0 (Windows NT 10.0; Win64; x64) AppleWebKit/537.36 (KHTML, like Gecko) Chrome/87.0.4280.66 Safari/537.36" etag="q7FiWCIIqmQJ8RYbusnz" version="13.10.8" type="github">
  <diagram id="VsD32Yqnd9QGwdsxf9Xg" name="Page-1">
    <mxGraphModel dx="1360" dy="745" grid="1" gridSize="10" guides="1" tooltips="1" connect="1" arrows="1" fold="1" page="1" pageScale="1" pageWidth="850" pageHeight="1100" math="0" shadow="0">
      <root>
        <mxCell id="0" />
        <mxCell id="1" parent="0" />
        <mxCell id="_Ieq1ObKjWpfHSGJmK0j-1" value="App" style="rounded=0;whiteSpace=wrap;html=1;" vertex="1" parent="1">
          <mxGeometry x="240" y="60" width="80" height="60" as="geometry" />
        </mxCell>
        <mxCell id="_Ieq1ObKjWpfHSGJmK0j-2" value="sdk" style="rounded=0;whiteSpace=wrap;html=1;" vertex="1" parent="1">
          <mxGeometry x="360" y="60" width="80" height="60" as="geometry" />
        </mxCell>
        <mxCell id="_Ieq1ObKjWpfHSGJmK0j-3" value="Falken Datapath" style="rounded=0;whiteSpace=wrap;html=1;" vertex="1" parent="1">
          <mxGeometry x="480" y="60" width="80" height="60" as="geometry" />
        </mxCell>
        <mxCell id="_Ieq1ObKjWpfHSGJmK0j-4" value="Falken&lt;br&gt;Controlpath" style="rounded=0;whiteSpace=wrap;html=1;" vertex="1" parent="1">
          <mxGeometry x="600" y="60" width="80" height="60" as="geometry" />
        </mxCell>
        <mxCell id="_Ieq1ObKjWpfHSGJmK0j-7" value="User" style="shape=umlActor;verticalLabelPosition=bottom;verticalAlign=top;html=1;outlineConnect=0;" vertex="1" parent="1">
          <mxGeometry x="145" y="40" width="30" height="60" as="geometry" />
        </mxCell>
        <mxCell id="_Ieq1ObKjWpfHSGJmK0j-10" value="" style="endArrow=none;html=1;strokeWidth=3;" edge="1" parent="1">
          <mxGeometry width="50" height="50" relative="1" as="geometry">
            <mxPoint x="160" y="1020" as="sourcePoint" />
            <mxPoint x="160" y="120" as="targetPoint" />
          </mxGeometry>
        </mxCell>
        <mxCell id="_Ieq1ObKjWpfHSGJmK0j-11" value="" style="endArrow=none;html=1;strokeWidth=3;" edge="1" parent="1">
          <mxGeometry width="50" height="50" relative="1" as="geometry">
            <mxPoint x="280" y="1030" as="sourcePoint" />
            <mxPoint x="280" y="120" as="targetPoint" />
          </mxGeometry>
        </mxCell>
        <mxCell id="_Ieq1ObKjWpfHSGJmK0j-12" value="" style="endArrow=none;html=1;strokeWidth=3;entryX=0.5;entryY=1;entryDx=0;entryDy=0;" edge="1" parent="1" target="_Ieq1ObKjWpfHSGJmK0j-2">
          <mxGeometry width="50" height="50" relative="1" as="geometry">
            <mxPoint x="400" y="1040" as="sourcePoint" />
            <mxPoint x="180" y="140" as="targetPoint" />
          </mxGeometry>
        </mxCell>
        <mxCell id="_Ieq1ObKjWpfHSGJmK0j-13" value="" style="endArrow=none;html=1;strokeWidth=3;entryX=0.5;entryY=1;entryDx=0;entryDy=0;" edge="1" parent="1" target="_Ieq1ObKjWpfHSGJmK0j-3">
          <mxGeometry width="50" height="50" relative="1" as="geometry">
            <mxPoint x="520" y="1030" as="sourcePoint" />
            <mxPoint x="190" y="150" as="targetPoint" />
          </mxGeometry>
        </mxCell>
        <mxCell id="_Ieq1ObKjWpfHSGJmK0j-14" value="" style="endArrow=none;html=1;strokeWidth=3;entryX=0.5;entryY=1;entryDx=0;entryDy=0;" edge="1" parent="1" target="_Ieq1ObKjWpfHSGJmK0j-4">
          <mxGeometry width="50" height="50" relative="1" as="geometry">
            <mxPoint x="640" y="1040" as="sourcePoint" />
            <mxPoint x="200" y="160" as="targetPoint" />
          </mxGeometry>
        </mxCell>
        <mxCell id="_Ieq1ObKjWpfHSGJmK0j-15" value="Start&lt;br&gt;application" style="endArrow=classic;html=1;strokeWidth=1;strokeColor=#0000FF;" edge="1" parent="1">
          <mxGeometry y="20" width="50" height="50" relative="1" as="geometry">
            <mxPoint x="160" y="160" as="sourcePoint" />
            <mxPoint x="280" y="160" as="targetPoint" />
            <mxPoint as="offset" />
          </mxGeometry>
        </mxCell>
        <mxCell id="_Ieq1ObKjWpfHSGJmK0j-16" value="Register to&lt;br&gt;Falken" style="endArrow=classic;html=1;strokeWidth=1;strokeColor=#0000FF;" edge="1" parent="1">
          <mxGeometry y="21" width="50" height="50" relative="1" as="geometry">
            <mxPoint x="280" y="191" as="sourcePoint" />
            <mxPoint x="400" y="191" as="targetPoint" />
            <mxPoint as="offset" />
          </mxGeometry>
        </mxCell>
        <mxCell id="_Ieq1ObKjWpfHSGJmK0j-18" value="Register instance&lt;br&gt;to Falken" style="endArrow=classic;html=1;strokeWidth=1;strokeColor=#0000FF;" edge="1" parent="1">
          <mxGeometry x="0.5" y="20" width="50" height="50" relative="1" as="geometry">
            <mxPoint x="400" y="220" as="sourcePoint" />
            <mxPoint x="640" y="220" as="targetPoint" />
            <mxPoint as="offset" />
          </mxGeometry>
        </mxCell>
        <mxCell id="_Ieq1ObKjWpfHSGJmK0j-20" value="" style="endArrow=classic;html=1;strokeColor=#0000FF;strokeWidth=1;edgeStyle=orthogonalEdgeStyle;curved=1;dashed=1;dashPattern=1 4;" edge="1" parent="1">
          <mxGeometry width="50" height="50" relative="1" as="geometry">
            <mxPoint x="640" y="220" as="sourcePoint" />
            <mxPoint x="640" y="280" as="targetPoint" />
            <Array as="points">
              <mxPoint x="680" y="220" />
              <mxPoint x="680" y="280" />
            </Array>
          </mxGeometry>
        </mxCell>
        <mxCell id="_Ieq1ObKjWpfHSGJmK0j-21" value="Modify app instance configurations in Falken" style="text;html=1;strokeColor=none;fillColor=none;align=center;verticalAlign=middle;whiteSpace=wrap;rounded=0;" vertex="1" parent="1">
          <mxGeometry x="700" y="530" width="40" height="20" as="geometry" />
        </mxCell>
        <mxCell id="_Ieq1ObKjWpfHSGJmK0j-22" value="Registeration is&lt;br&gt;complete" style="endArrow=classic;html=1;strokeWidth=1;strokeColor=#0000FF;" edge="1" parent="1">
          <mxGeometry y="21" width="50" height="50" relative="1" as="geometry">
            <mxPoint x="640" y="280" as="sourcePoint" />
            <mxPoint x="400" y="280" as="targetPoint" />
            <mxPoint as="offset" />
          </mxGeometry>
        </mxCell>
        <mxCell id="_Ieq1ObKjWpfHSGJmK0j-29" value="&lt;font style=&quot;font-size: 14px&quot;&gt;&lt;b&gt;App Registration&lt;/b&gt;&lt;/font&gt;" style="text;html=1;strokeColor=none;fillColor=none;align=center;verticalAlign=middle;whiteSpace=wrap;rounded=0;fontColor=#FF00FF;" vertex="1" parent="1">
          <mxGeometry x="50" y="180" width="70" height="50" as="geometry" />
        </mxCell>
        <mxCell id="_Ieq1ObKjWpfHSGJmK0j-30" value="&lt;span style=&quot;font-size: 14px&quot;&gt;&lt;b&gt;Configuration&lt;br&gt;aka&amp;nbsp;&lt;br&gt;QOS policy, monitoring filters etc&lt;br&gt;&lt;/b&gt;&lt;/span&gt;" style="text;html=1;strokeColor=none;fillColor=none;align=center;verticalAlign=middle;whiteSpace=wrap;rounded=0;fontColor=#FF00FF;" vertex="1" parent="1">
          <mxGeometry x="40" y="410" width="70" height="50" as="geometry" />
        </mxCell>
        <mxCell id="_Ieq1ObKjWpfHSGJmK0j-31" value="Application&lt;br&gt;configurations" style="endArrow=classic;html=1;strokeWidth=1;strokeColor=#0000FF;" edge="1" parent="1">
          <mxGeometry y="20" width="50" height="50" relative="1" as="geometry">
            <mxPoint x="160" y="440" as="sourcePoint" />
            <mxPoint x="280" y="440" as="targetPoint" />
            <mxPoint as="offset" />
          </mxGeometry>
        </mxCell>
        <mxCell id="_Ieq1ObKjWpfHSGJmK0j-32" value="Propagate falken&lt;br&gt;configuration" style="endArrow=classic;html=1;strokeWidth=1;strokeColor=#0000FF;" edge="1" parent="1">
          <mxGeometry y="20" width="50" height="50" relative="1" as="geometry">
            <mxPoint x="280" y="470" as="sourcePoint" />
            <mxPoint x="400" y="470" as="targetPoint" />
            <mxPoint as="offset" />
          </mxGeometry>
        </mxCell>
        <mxCell id="_Ieq1ObKjWpfHSGJmK0j-33" value="Notify&amp;nbsp;&lt;br&gt;new configurations" style="endArrow=classic;html=1;strokeWidth=1;strokeColor=#0000FF;" edge="1" parent="1">
          <mxGeometry y="20" width="50" height="50" relative="1" as="geometry">
            <mxPoint x="400" y="510" as="sourcePoint" />
            <mxPoint x="640" y="510" as="targetPoint" />
            <mxPoint as="offset" />
          </mxGeometry>
        </mxCell>
        <mxCell id="_Ieq1ObKjWpfHSGJmK0j-34" value="" style="endArrow=classic;html=1;strokeColor=#0000FF;strokeWidth=1;edgeStyle=orthogonalEdgeStyle;curved=1;dashed=1;dashPattern=1 4;" edge="1" parent="1">
          <mxGeometry width="50" height="50" relative="1" as="geometry">
            <mxPoint x="640" y="510" as="sourcePoint" />
            <mxPoint x="640" y="570" as="targetPoint" />
            <Array as="points">
              <mxPoint x="680" y="510" />
              <mxPoint x="680" y="570" />
            </Array>
          </mxGeometry>
        </mxCell>
        <mxCell id="_Ieq1ObKjWpfHSGJmK0j-35" value="Register new service instance in falken system" style="text;html=1;strokeColor=none;fillColor=none;align=center;verticalAlign=middle;whiteSpace=wrap;rounded=0;" vertex="1" parent="1">
          <mxGeometry x="710" y="250" width="40" height="20" as="geometry" />
        </mxCell>
        <mxCell id="_Ieq1ObKjWpfHSGJmK0j-37" value="Configuration&lt;br&gt;updated" style="endArrow=classic;html=1;strokeWidth=1;strokeColor=#0000FF;" edge="1" parent="1">
          <mxGeometry y="20" width="50" height="50" relative="1" as="geometry">
            <mxPoint x="640" y="570" as="sourcePoint" />
            <mxPoint x="400" y="570" as="targetPoint" />
            <mxPoint as="offset" />
          </mxGeometry>
        </mxCell>
        <mxCell id="_Ieq1ObKjWpfHSGJmK0j-38" value="Registeration is&lt;br&gt;complete" style="endArrow=classic;html=1;strokeWidth=1;strokeColor=#0000FF;" edge="1" parent="1">
          <mxGeometry y="21" width="50" height="50" relative="1" as="geometry">
            <mxPoint x="400" y="280" as="sourcePoint" />
            <mxPoint x="280" y="280" as="targetPoint" />
            <mxPoint as="offset" />
          </mxGeometry>
        </mxCell>
        <mxCell id="_Ieq1ObKjWpfHSGJmK0j-39" value="Configuration&lt;br&gt;updated" style="endArrow=classic;html=1;strokeWidth=1;strokeColor=#0000FF;" edge="1" parent="1">
          <mxGeometry y="20" width="50" height="50" relative="1" as="geometry">
            <mxPoint x="400" y="570" as="sourcePoint" />
            <mxPoint x="280" y="570" as="targetPoint" />
            <mxPoint as="offset" />
          </mxGeometry>
        </mxCell>
      </root>
    </mxGraphModel>
  </diagram>
</mxfile>
